<svg id="my-svg" width="100%" xmlns="http://www.w3.org/2000/svg" xmlns:xlink="http://www.w3.org/1999/xlink" class="statediagram" style="max-width: 1056.23px; background-color: white;" viewBox="0 0 1056.23046875 1372" role="graphics-document document" aria-roledescription="stateDiagram"><style>#my-svg{font-family:"trebuchet ms",verdana,arial,sans-serif;font-size:16px;fill:#333;}@keyframes edge-animation-frame{from{stroke-dashoffset:0;}}@keyframes dash{to{stroke-dashoffset:0;}}#my-svg .edge-animation-slow{stroke-dasharray:9,5!important;stroke-dashoffset:900;animation:dash 50s linear infinite;stroke-linecap:round;}#my-svg .edge-animation-fast{stroke-dasharray:9,5!important;stroke-dashoffset:900;animation:dash 20s linear infinite;stroke-linecap:round;}#my-svg .error-icon{fill:#552222;}#my-svg .error-text{fill:#552222;stroke:#552222;}#my-svg .edge-thickness-normal{stroke-width:1px;}#my-svg .edge-thickness-thick{stroke-width:3.5px;}#my-svg .edge-pattern-solid{stroke-dasharray:0;}#my-svg .edge-thickness-invisible{stroke-width:0;fill:none;}#my-svg .edge-pattern-dashed{stroke-dasharray:3;}#my-svg .edge-pattern-dotted{stroke-dasharray:2;}#my-svg .marker{fill:#333333;stroke:#333333;}#my-svg .marker.cross{stroke:#333333;}#my-svg svg{font-family:"trebuchet ms",verdana,arial,sans-serif;font-size:16px;}#my-svg p{margin:0;}#my-svg defs [id$="-barbEnd"]{fill:#333333;stroke:#333333;}#my-svg g.stateGroup text{fill:#9370DB;stroke:none;font-size:10px;}#my-svg g.stateGroup text{fill:#333;stroke:none;font-size:10px;}#my-svg g.stateGroup .state-title{font-weight:bolder;fill:#131300;}#my-svg g.stateGroup rect{fill:#ECECFF;stroke:#9370DB;}#my-svg g.stateGroup line{stroke:#333333;stroke-width:1;}#my-svg .transition{stroke:#333333;stroke-width:1;fill:none;}#my-svg .stateGroup .composit{fill:white;border-bottom:1px;}#my-svg .stateGroup .alt-composit{fill:#e0e0e0;border-bottom:1px;}#my-svg .state-note{stroke:#aaaa33;fill:#fff5ad;}#my-svg .state-note text{fill:black;stroke:none;font-size:10px;}#my-svg .stateLabel .box{stroke:none;stroke-width:0;fill:#ECECFF;opacity:0.5;}#my-svg .edgeLabel .label rect{fill:#ECECFF;opacity:0.5;}#my-svg .edgeLabel{background-color:rgba(232,232,232, 0.8);text-align:center;}#my-svg .edgeLabel p{background-color:rgba(232,232,232, 0.8);}#my-svg .edgeLabel rect{opacity:0.5;background-color:rgba(232,232,232, 0.8);fill:rgba(232,232,232, 0.8);}#my-svg .edgeLabel .label text{fill:#333;}#my-svg .label div .edgeLabel{color:#333;}#my-svg .stateLabel text{fill:#131300;font-size:10px;font-weight:bold;}#my-svg .node circle.state-start{fill:#333333;stroke:#333333;}#my-svg .node .fork-join{fill:#333333;stroke:#333333;}#my-svg .node circle.state-end{fill:#9370DB;stroke:white;stroke-width:1.5;}#my-svg .end-state-inner{fill:white;stroke-width:1.5;}#my-svg .node rect{fill:#ECECFF;stroke:#9370DB;stroke-width:1px;}#my-svg .node polygon{fill:#ECECFF;stroke:#9370DB;stroke-width:1px;}#my-svg [id$="-barbEnd"]{fill:#333333;}#my-svg .statediagram-cluster rect{fill:#ECECFF;stroke:#9370DB;stroke-width:1px;}#my-svg .cluster-label,#my-svg .nodeLabel{color:#131300;}#my-svg .statediagram-cluster rect.outer{rx:5px;ry:5px;}#my-svg .statediagram-state .divider{stroke:#9370DB;}#my-svg .statediagram-state .title-state{rx:5px;ry:5px;}#my-svg .statediagram-cluster.statediagram-cluster .inner{fill:white;}#my-svg .statediagram-cluster.statediagram-cluster-alt .inner{fill:#f0f0f0;}#my-svg .statediagram-cluster .inner{rx:0;ry:0;}#my-svg .statediagram-state rect.basic{rx:5px;ry:5px;}#my-svg .statediagram-state rect.divider{stroke-dasharray:10,10;fill:#f0f0f0;}#my-svg .note-edge{stroke-dasharray:5;}#my-svg .statediagram-note rect{fill:#fff5ad;stroke:#aaaa33;stroke-width:1px;rx:0;ry:0;}#my-svg .statediagram-note rect{fill:#fff5ad;stroke:#aaaa33;stroke-width:1px;rx:0;ry:0;}#my-svg .statediagram-note text{fill:black;}#my-svg .statediagram-note .nodeLabel{color:black;}#my-svg .statediagram .edgeLabel{color:red;}#my-svg [id$="-dependencyStart"],#my-svg [id$="-dependencyEnd"]{fill:#333333;stroke:#333333;stroke-width:1;}#my-svg .statediagramTitleText{text-anchor:middle;font-size:18px;fill:#333;}#my-svg [data-look="neo"].statediagram-cluster rect{fill:#ECECFF;stroke:#9370DB;stroke-width:1;}#my-svg [data-look="neo"].statediagram-cluster rect.outer{rx:5px;ry:5px;filter:drop-shadow(1px 2px 2px rgba(185, 185, 185, 1));}#my-svg .node .neo-node{stroke:#9370DB;}#my-svg [data-look="neo"].node rect,#my-svg [data-look="neo"].cluster rect,#my-svg [data-look="neo"].node polygon{stroke:#9370DB;filter:drop-shadow(1px 2px 2px rgba(185, 185, 185, 1));}#my-svg [data-look="neo"].node path{stroke:#9370DB;stroke-width:1px;}#my-svg [data-look="neo"].node .outer-path{filter:drop-shadow(1px 2px 2px rgba(185, 185, 185, 1));}#my-svg [data-look="neo"].node .neo-line path{stroke:#9370DB;filter:none;}#my-svg [data-look="neo"].node circle{stroke:#9370DB;filter:drop-shadow(1px 2px 2px rgba(185, 185, 185, 1));}#my-svg [data-look="neo"].node circle .state-start{fill:#000000;}#my-svg [data-look="neo"].icon-shape .icon{fill:#9370DB;filter:drop-shadow(1px 2px 2px rgba(185, 185, 185, 1));}#my-svg [data-look="neo"].icon-shape .icon-neo path{stroke:#9370DB;filter:drop-shadow(1px 2px 2px rgba(185, 185, 185, 1));}#my-svg :root{--mermaid-font-family:"trebuchet ms",verdana,arial,sans-serif;}</style><g><defs><marker id="my-svg_stateDiagram-barbEnd" refX="19" refY="7" markerWidth="20" markerHeight="14" markerUnits="userSpaceOnUse" orient="auto"><path d="M 19,7 L9,13 L14,7 L9,1 Z"/></marker></defs><g class="root"><g class="clusters"/><g class="edgePaths"><path d="M241.914,22L241.914,26.167C241.914,30.333,241.914,38.667,241.914,47C241.914,55.333,241.914,63.667,241.914,67.833L241.914,72" id="my-svg-edge0" class="edge-thickness-normal edge-pattern-solid transition" style="fill:none;;;fill:none" data-edge="true" data-et="edge" data-id="edge0" data-points="W3sieCI6MjQxLjkxNDA2MjUsInkiOjIyfSx7IngiOjI0MS45MTQwNjI1LCJ5Ijo0N30seyJ4IjoyNDEuOTE0MDYyNSwieSI6NzJ9XQ==" data-look="classic" marker-end="url(#my-svg_stateDiagram-barbEnd)"/><path d="M241.914,112L241.914,116.167C241.914,120.333,241.914,128.667,241.914,137C241.914,145.333,241.914,153.667,241.914,157.833L241.914,162" id="my-svg-edge1" class="edge-thickness-normal edge-pattern-solid transition" style="fill:none;;;fill:none" data-edge="true" data-et="edge" data-id="edge1" data-points="W3sieCI6MjQxLjkxNDA2MjUsInkiOjExMn0seyJ4IjoyNDEuOTE0MDYyNSwieSI6MTM3fSx7IngiOjI0MS45MTQwNjI1LCJ5IjoxNjJ9XQ==" data-look="classic" marker-end="url(#my-svg_stateDiagram-barbEnd)"/><path d="M241.914,202L241.914,206.167C241.914,210.333,241.914,218.667,241.914,227C241.914,235.333,241.914,243.667,241.914,247.833L241.914,252" id="my-svg-edge2" class="edge-thickness-normal edge-pattern-solid transition" style="fill:none;;;fill:none" data-edge="true" data-et="edge" data-id="edge2" data-points="W3sieCI6MjQxLjkxNDA2MjUsInkiOjIwMn0seyJ4IjoyNDEuOTE0MDYyNSwieSI6MjI3fSx7IngiOjI0MS45MTQwNjI1LCJ5IjoyNTJ9XQ==" data-look="classic" marker-end="url(#my-svg_stateDiagram-barbEnd)"/><path d="M201.438,282.481L179.219,288.234C157,293.987,112.563,305.494,90.344,318.747C68.125,332,68.125,347,68.125,364C68.125,381,68.125,400,68.125,419C68.125,438,68.125,457,68.125,478C68.125,499,68.125,522,68.125,545C68.125,568,68.125,591,68.125,612C68.125,633,68.125,652,68.125,671C68.125,690,68.125,709,68.125,730C68.125,751,68.125,774,68.125,797C68.125,820,68.125,843,68.125,866C68.125,889,68.125,912,68.125,935C68.125,958,68.125,981,68.125,1004C68.125,1027,68.125,1050,68.125,1073C68.125,1096,68.125,1119,68.125,1142C68.125,1165,68.125,1188,68.125,1207.667C68.125,1227.333,68.125,1243.667,68.125,1251.833L68.125,1260" id="my-svg-edge3" class="edge-thickness-normal edge-pattern-solid transition" style="fill:none;;;fill:none" data-edge="true" data-et="edge" data-id="edge3" data-points="W3sieCI6MjAxLjQzNzUsInkiOjI4Mi40ODA3ODIxOTgyNDY4fSx7IngiOjY4LjEyNSwieSI6MzE3fSx7IngiOjY4LjEyNSwieSI6MzYyfSx7IngiOjY4LjEyNSwieSI6NDE5fSx7IngiOjY4LjEyNSwieSI6NDc2fSx7IngiOjY4LjEyNSwieSI6NTQ1fSx7IngiOjY4LjEyNSwieSI6NjE0fSx7IngiOjY4LjEyNSwieSI6NjcxfSx7IngiOjY4LjEyNSwieSI6NzI4fSx7IngiOjY4LjEyNSwieSI6Nzk3fSx7IngiOjY4LjEyNSwieSI6ODY2fSx7IngiOjY4LjEyNSwieSI6OTM1fSx7IngiOjY4LjEyNSwieSI6MTAwNH0seyJ4Ijo2OC4xMjUsInkiOjEwNzN9LHsieCI6NjguMTI1LCJ5IjoxMTQyfSx7IngiOjY4LjEyNSwieSI6MTIxMX0seyJ4Ijo2OC4xMjUsInkiOjEyNjB9XQ==" data-look="classic" marker-end="url(#my-svg_stateDiagram-barbEnd)"/><path d="M241.914,292L241.914,296.167C241.914,300.333,241.914,308.667,241.914,320.333C241.914,332,241.914,347,241.914,364C241.914,381,241.914,400,241.914,419C241.914,438,241.914,457,241.914,478C241.914,499,241.914,522,241.914,545C241.914,568,241.914,591,241.914,612C241.914,633,241.914,652,241.914,671C241.914,690,241.914,709,241.914,730C241.914,751,241.914,774,241.914,797C241.914,820,241.914,843,241.914,866C241.914,889,241.914,912,241.914,935C241.914,958,241.914,981,241.914,1004C241.914,1027,241.914,1050,241.914,1073C241.914,1096,241.914,1119,241.914,1142C241.914,1165,241.914,1188,241.914,1207.667C241.914,1227.333,241.914,1243.667,241.914,1251.833L241.914,1260" id="my-svg-edge4" class="edge-thickness-normal edge-pattern-solid transition" style="fill:none;;;fill:none" data-edge="true" data-et="edge" data-id="edge4" data-points="W3sieCI6MjQxLjkxNDA2MjUsInkiOjI5Mn0seyJ4IjoyNDEuOTE0MDYyNSwieSI6MzE3fSx7IngiOjI0MS45MTQwNjI1LCJ5IjozNjJ9LHsieCI6MjQxLjkxNDA2MjUsInkiOjQxOX0seyJ4IjoyNDEuOTE0MDYyNSwieSI6NDc2fSx7IngiOjI0MS45MTQwNjI1LCJ5Ijo1NDV9LHsieCI6MjQxLjkxNDA2MjUsInkiOjYxNH0seyJ4IjoyNDEuOTE0MDYyNSwieSI6NjcxfSx7IngiOjI0MS45MTQwNjI1LCJ5Ijo3Mjh9LHsieCI6MjQxLjkxNDA2MjUsInkiOjc5N30seyJ4IjoyNDEuOTE0MDYyNSwieSI6ODY2fSx7IngiOjI0MS45MTQwNjI1LCJ5Ijo5MzV9LHsieCI6MjQxLjkxNDA2MjUsInkiOjEwMDR9LHsieCI6MjQxLjkxNDA2MjUsInkiOjEwNzN9LHsieCI6MjQxLjkxNDA2MjUsInkiOjExNDJ9LHsieCI6MjQxLjkxNDA2MjUsInkiOjEyMTF9LHsieCI6MjQxLjkxNDA2MjUsInkiOjEyNjB9XQ==" data-look="classic" marker-end="url(#my-svg_stateDiagram-barbEnd)"/><path d="M282.391,275.833L354.846,282.694C427.302,289.555,572.214,303.278,644.669,314.305C717.125,325.333,717.125,333.667,717.125,337.833L717.125,342" id="my-svg-edge5" class="edge-thickness-normal edge-pattern-solid transition" style="fill:none;;;fill:none" data-edge="true" data-et="edge" data-id="edge5" data-points="W3sieCI6MjgyLjM5MDYyNSwieSI6Mjc1LjgzMjkxOTU5MTYyODd9LHsieCI6NzE3LjEyNSwieSI6MzE3fSx7IngiOjcxNy4xMjUsInkiOjM0Mn1d" data-look="classic" marker-end="url(#my-svg_stateDiagram-barbEnd)"/><path d="M697.96,382L692.05,388.167C686.141,394.333,674.323,406.667,668.413,419C662.504,431.333,662.504,443.667,662.504,449.833L662.504,456" id="my-svg-edge6" class="edge-thickness-normal edge-pattern-solid transition" style="fill:none;;;fill:none" data-edge="true" data-et="edge" data-id="edge6" data-points="W3sieCI6Njk3Ljk1OTcwMzk0NzM2ODQsInkiOjM4Mn0seyJ4Ijo2NjIuNTAzOTA2MjUsInkiOjQxOX0seyJ4Ijo2NjIuNTAzOTA2MjUsInkiOjQ1Nn1d" data-look="classic" marker-end="url(#my-svg_stateDiagram-barbEnd)"/><path d="M778.047,377.026L806.411,384.022C834.775,391.017,891.503,405.009,919.867,421.504C948.23,438,948.23,457,948.23,478C948.23,499,948.23,522,948.23,545C948.23,568,948.23,591,948.23,612C948.23,633,948.23,652,948.23,671C948.23,690,948.23,709,948.23,730C948.23,751,948.23,774,948.23,797C948.23,820,948.23,843,948.23,866C948.23,889,948.23,912,948.23,935C948.23,958,948.23,981,948.23,1004C948.23,1027,948.23,1050,948.23,1073C948.23,1096,948.23,1119,948.23,1142C948.23,1165,948.23,1188,948.23,1207.667C948.23,1227.333,948.23,1243.667,948.23,1251.833L948.23,1260" id="my-svg-edge7" class="edge-thickness-normal edge-pattern-solid transition" style="fill:none;;;fill:none" data-edge="true" data-et="edge" data-id="edge7" data-points="W3sieCI6Nzc4LjA0Njg3NSwieSI6Mzc3LjAyNTgxMDA1MDIwMDN9LHsieCI6OTQ4LjIzMDQ2ODc1LCJ5Ijo0MTl9LHsieCI6OTQ4LjIzMDQ2ODc1LCJ5Ijo0NzZ9LHsieCI6OTQ4LjIzMDQ2ODc1LCJ5Ijo1NDV9LHsieCI6OTQ4LjIzMDQ2ODc1LCJ5Ijo2MTR9LHsieCI6OTQ4LjIzMDQ2ODc1LCJ5Ijo2NzF9LHsieCI6OTQ4LjIzMDQ2ODc1LCJ5Ijo3Mjh9LHsieCI6OTQ4LjIzMDQ2ODc1LCJ5Ijo3OTd9LHsieCI6OTQ4LjIzMDQ2ODc1LCJ5Ijo4NjZ9LHsieCI6OTQ4LjIzMDQ2ODc1LCJ5Ijo5MzV9LHsieCI6OTQ4LjIzMDQ2ODc1LCJ5IjoxMDA0fSx7IngiOjk0OC4yMzA0Njg3NSwieSI6MTA3M30seyJ4Ijo5NDguMjMwNDY4NzUsInkiOjExNDJ9LHsieCI6OTQ4LjIzMDQ2ODc1LCJ5IjoxMjExfSx7IngiOjk0OC4yMzA0Njg3NSwieSI6MTI2MH1d" data-look="classic" marker-end="url(#my-svg_stateDiagram-barbEnd)"/><path d="M635.926,496L625.073,504.167C614.22,512.333,592.514,528.667,581.661,545C570.809,561.333,570.809,577.667,570.809,585.833L570.809,594" id="my-svg-edge8" class="edge-thickness-normal edge-pattern-solid transition" style="fill:none;;;fill:none" data-edge="true" data-et="edge" data-id="edge8" data-points="W3sieCI6NjM1LjkyNTU1NDgwMDcyNDYsInkiOjQ5Nn0seyJ4Ijo1NzAuODA4NTkzNzUsInkiOjU0NX0seyJ4Ijo1NzAuODA4NTkzNzUsInkiOjU5NH1d" data-look="classic" marker-end="url(#my-svg_stateDiagram-barbEnd)"/><path d="M541.01,634L531.822,640.167C522.634,646.333,504.259,658.667,495.071,671C485.883,683.333,485.883,695.667,485.883,701.833L485.883,708" id="my-svg-edge9" class="edge-thickness-normal edge-pattern-solid transition" style="fill:none;;;fill:none" data-edge="true" data-et="edge" data-id="edge9" data-points="W3sieCI6NTQxLjAxMDA3NDAxMzE1NzksInkiOjYzNH0seyJ4Ijo0ODUuODgyODEyNSwieSI6NjcxfSx7IngiOjQ4NS44ODI4MTI1LCJ5Ijo3MDh9XQ==" data-look="classic" marker-end="url(#my-svg_stateDiagram-barbEnd)"/><path d="M624.554,634L641.126,640.167C657.698,646.333,690.841,658.667,707.413,674.333C723.984,690,723.984,709,723.984,730C723.984,751,723.984,774,723.984,797C723.984,820,723.984,843,723.984,866C723.984,889,723.984,912,723.984,935C723.984,958,723.984,981,723.984,1004C723.984,1027,723.984,1050,723.984,1073C723.984,1096,723.984,1119,723.984,1142C723.984,1165,723.984,1188,723.984,1207.667C723.984,1227.333,723.984,1243.667,723.984,1251.833L723.984,1260" id="my-svg-edge10" class="edge-thickness-normal edge-pattern-solid transition" style="fill:none;;;fill:none" data-edge="true" data-et="edge" data-id="edge10" data-points="W3sieCI6NjI0LjU1NDQ4MTkwNzg5NDgsInkiOjYzNH0seyJ4Ijo3MjMuOTg0Mzc1LCJ5Ijo2NzF9LHsieCI6NzIzLjk4NDM3NSwieSI6NzI4fSx7IngiOjcyMy45ODQzNzUsInkiOjc5N30seyJ4Ijo3MjMuOTg0Mzc1LCJ5Ijo4NjZ9LHsieCI6NzIzLjk4NDM3NSwieSI6OTM1fSx7IngiOjcyMy45ODQzNzUsInkiOjEwMDR9LHsieCI6NzIzLjk4NDM3NSwieSI6MTA3M30seyJ4Ijo3MjMuOTg0Mzc1LCJ5IjoxMTQyfSx7IngiOjcyMy45ODQzNzUsInkiOjEyMTF9LHsieCI6NzIzLjk4NDM3NSwieSI6MTI2MH1d" data-look="classic" marker-end="url(#my-svg_stateDiagram-barbEnd)"/><path d="M485.883,748L485.883,756.167C485.883,764.333,485.883,780.667,485.883,797C485.883,813.333,485.883,829.667,485.883,837.833L485.883,846" id="my-svg-edge11" class="edge-thickness-normal edge-pattern-solid transition" style="fill:none;;;fill:none" data-edge="true" data-et="edge" data-id="edge11" data-points="W3sieCI6NDg1Ljg4MjgxMjUsInkiOjc0OH0seyJ4Ijo0ODUuODgyODEyNSwieSI6Nzk3fSx7IngiOjQ4NS44ODI4MTI1LCJ5Ijo4NDZ9XQ==" data-look="classic" marker-end="url(#my-svg_stateDiagram-barbEnd)"/><path d="M521.898,722.186L574.747,713.655C627.595,705.124,733.292,688.062,786.14,670.031C838.988,652,838.988,633,838.988,612C838.988,591,838.988,568,815.727,547.405C792.465,526.811,745.941,508.622,722.68,499.527L699.418,490.432" id="my-svg-edge12" class="edge-thickness-normal edge-pattern-solid transition" style="fill:none;;;fill:none" data-edge="true" data-et="edge" data-id="edge12" data-points="W3sieCI6NTIxLjg5ODQzNzUsInkiOjcyMi4xODYxODI4NjQwOTY1fSx7IngiOjgzOC45ODgyODEyNSwieSI6NjcxfSx7IngiOjgzOC45ODgyODEyNSwieSI6NjE0fSx7IngiOjgzOC45ODgyODEyNSwieSI6NTQ1fSx7IngiOjY5OS40MTc5Njg3NSwieSI6NDkwLjQzMjI3MDkxNjMzNDd9XQ==" data-look="classic" marker-end="url(#my-svg_stateDiagram-barbEnd)"/><path d="M460.992,878.52L442.277,887.933C423.563,897.346,386.133,916.173,367.418,937.087C348.703,958,348.703,981,348.703,1004C348.703,1027,348.703,1050,364.939,1069.667C381.176,1089.333,413.648,1105.667,429.884,1113.833L446.121,1122" id="my-svg-edge13" class="edge-thickness-normal edge-pattern-solid transition" style="fill:none;;;fill:none" data-edge="true" data-et="edge" data-id="edge13" data-points="W3sieCI6NDYwLjk5MjE4NzUsInkiOjg3OC41MTk3MzM0NzAwMTU0fSx7IngiOjM0OC43MDMxMjUsInkiOjkzNX0seyJ4IjozNDguNzAzMTI1LCJ5IjoxMDA0fSx7IngiOjM0OC43MDMxMjUsInkiOjEwNzN9LHsieCI6NDQ2LjEyMDU4NDIzOTEzMDQ0LCJ5IjoxMTIyfV0=" data-look="classic" marker-end="url(#my-svg_stateDiagram-barbEnd)"/><path d="M505.665,886L513.743,894.167C521.821,902.333,537.977,918.667,546.055,935C554.133,951.333,554.133,967.667,554.133,975.833L554.133,984" id="my-svg-edge14" class="edge-thickness-normal edge-pattern-solid transition" style="fill:none;;;fill:none" data-edge="true" data-et="edge" data-id="edge14" data-points="W3sieCI6NTA1LjY2NTQyMTE5NTY1MjIsInkiOjg4Nn0seyJ4Ijo1NTQuMTMyODEyNSwieSI6OTM1fSx7IngiOjU1NC4xMzI4MTI1LCJ5Ijo5ODR9XQ==" data-look="classic" marker-end="url(#my-svg_stateDiagram-barbEnd)"/><path d="M554.133,1024L554.133,1032.167C554.133,1040.333,554.133,1056.667,546.055,1073C537.977,1089.333,521.821,1105.667,513.743,1113.833L505.665,1122" id="my-svg-edge15" class="edge-thickness-normal edge-pattern-solid transition" style="fill:none;;;fill:none" data-edge="true" data-et="edge" data-id="edge15" data-points="W3sieCI6NTU0LjEzMjgxMjUsInkiOjEwMjR9LHsieCI6NTU0LjEzMjgxMjUsInkiOjEwNzN9LHsieCI6NTA1LjY2NTQyMTE5NTY1MjIsInkiOjExMjJ9XQ==" data-look="classic" marker-end="url(#my-svg_stateDiagram-barbEnd)"/><path d="M459.88,1162L449.262,1170.167C438.644,1178.333,417.408,1194.667,406.79,1211C396.172,1227.333,396.172,1243.667,396.172,1251.833L396.172,1260" id="my-svg-edge16" class="edge-thickness-normal edge-pattern-solid transition" style="fill:none;;;fill:none" data-edge="true" data-et="edge" data-id="edge16" data-points="W3sieCI6NDU5Ljg3OTY0MjIxMDE0NDk0LCJ5IjoxMTYyfSx7IngiOjM5Ni4xNzE4NzUsInkiOjEyMTF9LHsieCI6Mzk2LjE3MTg3NSwieSI6MTI2MH1d" data-look="classic" marker-end="url(#my-svg_stateDiagram-barbEnd)"/><path d="M511.886,1162L522.504,1170.167C533.122,1178.333,554.358,1194.667,564.976,1211C575.594,1227.333,575.594,1243.667,575.594,1251.833L575.594,1260" id="my-svg-edge17" class="edge-thickness-normal edge-pattern-solid transition" style="fill:none;;;fill:none" data-edge="true" data-et="edge" data-id="edge17" data-points="W3sieCI6NTExLjg4NTk4Mjc4OTg1NTA2LCJ5IjoxMTYyfSx7IngiOjU3NS41OTM3NSwieSI6MTIxMX0seyJ4Ijo1NzUuNTkzNzUsInkiOjEyNjB9XQ==" data-look="classic" marker-end="url(#my-svg_stateDiagram-barbEnd)"/><path d="M396.172,1300L396.172,1304.167C396.172,1308.333,396.172,1316.667,410.024,1325.774C423.876,1334.882,451.58,1344.764,465.432,1349.705L479.283,1354.646" id="my-svg-edge18" class="edge-thickness-normal edge-pattern-solid transition" style="fill:none;;;fill:none" data-edge="true" data-et="edge" data-id="edge18" data-points="W3sieCI6Mzk2LjE3MTg3NSwieSI6MTMwMH0seyJ4IjozOTYuMTcxODc1LCJ5IjoxMzI1fSx7IngiOjQ3OS4yODM0MzcwMzgxNTk2NiwieSI6MTM1NC42NDU5OTQ3ODQzMTYxfV0=" data-look="classic" marker-end="url(#my-svg_stateDiagram-barbEnd)"/><path d="M68.125,1300L68.125,1304.167C68.125,1308.333,68.125,1316.667,136.587,1326.077C205.049,1335.488,341.973,1345.977,410.435,1351.221L478.897,1356.465" id="my-svg-edge19" class="edge-thickness-normal edge-pattern-solid transition" style="fill:none;;;fill:none" data-edge="true" data-et="edge" data-id="edge19" data-points="W3sieCI6NjguMTI1LCJ5IjoxMzAwfSx7IngiOjY4LjEyNSwieSI6MTMyNX0seyJ4Ijo0NzguODk2NjMxNDkwMjg2LCJ5IjoxMzU2LjQ2NDg2MjY4OTI4NjN9XQ==" data-look="classic" marker-end="url(#my-svg_stateDiagram-barbEnd)"/><path d="M241.914,1300L241.914,1304.167C241.914,1308.333,241.914,1316.667,281.418,1326.015C320.921,1335.363,399.928,1345.726,439.432,1350.907L478.936,1356.089" id="my-svg-edge20" class="edge-thickness-normal edge-pattern-solid transition" style="fill:none;;;fill:none" data-edge="true" data-et="edge" data-id="edge20" data-points="W3sieCI6MjQxLjkxNDA2MjUsInkiOjEzMDB9LHsieCI6MjQxLjkxNDA2MjUsInkiOjEzMjV9LHsieCI6NDc4LjkzNTY3MDYzMzE0NSwieSI6MTM1Ni4wODg3ODI3MjQyNjU1fV0=" data-look="classic" marker-end="url(#my-svg_stateDiagram-barbEnd)"/><path d="M723.984,1300L723.984,1304.167C723.984,1308.333,723.984,1316.667,685.458,1326.011C646.932,1335.356,569.879,1345.711,531.353,1350.889L492.827,1356.067" id="my-svg-edge21" class="edge-thickness-normal edge-pattern-solid transition" style="fill:none;;;fill:none" data-edge="true" data-et="edge" data-id="edge21" data-points="W3sieCI6NzIzLjk4NDM3NSwieSI6MTMwMH0seyJ4Ijo3MjMuOTg0Mzc1LCJ5IjoxMzI1fSx7IngiOjQ5Mi44MjcwMjUyMjI2MTYxNiwieSI6MTM1Ni4wNjY3MjI2MDAyNjEzfV0=" data-look="classic" marker-end="url(#my-svg_stateDiagram-barbEnd)"/><path d="M575.594,1300L575.594,1304.167C575.594,1308.333,575.594,1316.667,561.742,1325.774C547.89,1334.882,520.186,1344.764,506.334,1349.705L492.482,1354.646" id="my-svg-edge22" class="edge-thickness-normal edge-pattern-solid transition" style="fill:none;;;fill:none" data-edge="true" data-et="edge" data-id="edge22" data-points="W3sieCI6NTc1LjU5Mzc1LCJ5IjoxMzAwfSx7IngiOjU3NS41OTM3NSwieSI6MTMyNX0seyJ4Ijo0OTIuNDgyMTg3OTYxODQwMzQsInkiOjEzNTQuNjQ1OTk0Nzg0MzE2MX1d" data-look="classic" marker-end="url(#my-svg_stateDiagram-barbEnd)"/><path d="M948.23,1300L948.23,1304.167C948.23,1308.333,948.23,1316.667,872.338,1326.086C796.445,1335.505,644.659,1346.011,568.766,1351.264L492.873,1356.516" id="my-svg-edge23" class="edge-thickness-normal edge-pattern-solid transition" style="fill:none;;;fill:none" data-edge="true" data-et="edge" data-id="edge23" data-points="W3sieCI6OTQ4LjIzMDQ2ODc1LCJ5IjoxMzAwfSx7IngiOjk0OC4yMzA0Njg3NSwieSI6MTMyNX0seyJ4Ijo0OTIuODcyNzM3MjE5NzM1MiwieSI6MTM1Ni41MTYyMTM0MjA3NzE1fV0=" data-look="classic" marker-end="url(#my-svg_stateDiagram-barbEnd)"/></g><g class="edgeLabels"><g class="edgeLabel"><g class="label" data-id="edge0" transform="translate(0, 0)"><foreignObject width="0" height="0"><div xmlns="http://www.w3.org/1999/xhtml" class="labelBkg" style="display: table-cell; white-space: nowrap; line-height: 1.5; max-width: 200px; text-align: center;"><span class="edgeLabel"></span></div></foreignObject></g></g><g class="edgeLabel"><g class="label" data-id="edge1" transform="translate(0, 0)"><foreignObject width="0" height="0"><div xmlns="http://www.w3.org/1999/xhtml" class="labelBkg" style="display: table-cell; white-space: nowrap; line-height: 1.5; max-width: 200px; text-align: center;"><span class="edgeLabel"></span></div></foreignObject></g></g><g class="edgeLabel"><g class="label" data-id="edge2" transform="translate(0, 0)"><foreignObject width="0" height="0"><div xmlns="http://www.w3.org/1999/xhtml" class="labelBkg" style="display: table-cell; white-space: nowrap; line-height: 1.5; max-width: 200px; text-align: center;"><span class="edgeLabel"></span></div></foreignObject></g></g><g class="edgeLabel" transform="translate(68.125, 728)"><g class="label" data-id="edge3" transform="translate(-60.125, -12)"><foreignObject width="120.25" height="24"><div xmlns="http://www.w3.org/1999/xhtml" class="labelBkg" style="display: table-cell; white-space: nowrap; line-height: 1.5; max-width: 200px; text-align: center;"><span class="edgeLabel"><p>валідацій немає</p></span></div></foreignObject></g></g><g class="edgeLabel" transform="translate(241.9140625, 728)"><g class="label" data-id="edge4" transform="translate(-93.6640625, -12)"><foreignObject width="187.328125" height="24"><div xmlns="http://www.w3.org/1999/xhtml" class="labelBkg" style="display: table-cell; white-space: nowrap; line-height: 1.5; max-width: 200px; text-align: center;"><span class="edgeLabel"><p>невідомий код → fail-safe</p></span></div></foreignObject></g></g><g class="edgeLabel"><g class="label" data-id="edge5" transform="translate(0, 0)"><foreignObject width="0" height="0"><div xmlns="http://www.w3.org/1999/xhtml" class="labelBkg" style="display: table-cell; white-space: nowrap; line-height: 1.5; max-width: 200px; text-align: center;"><span class="edgeLabel"></span></div></foreignObject></g></g><g class="edgeLabel" transform="translate(662.50390625, 419)"><g class="label" data-id="edge6" transform="translate(-52.4765625, -12)"><foreignObject width="104.953125" height="24"><div xmlns="http://www.w3.org/1999/xhtml" class="labelBkg" style="display: table-cell; white-space: nowrap; line-height: 1.5; max-width: 200px; text-align: center;"><span class="edgeLabel"><p>Evidence Gate</p></span></div></foreignObject></g></g><g class="edgeLabel" transform="translate(948.23046875, 797)"><g class="label" data-id="edge7" transform="translate(-100, -24)"><foreignObject width="200" height="48"><div xmlns="http://www.w3.org/1999/xhtml" class="labelBkg" style="display: table; white-space: break-spaces; line-height: 1.5; max-width: 200px; text-align: center; width: 200px;"><span class="edgeLabel"><p>ліміти §6.3 → terminal status</p></span></div></foreignObject></g></g><g class="edgeLabel" transform="translate(570.80859375, 545)"><g class="label" data-id="edge8" transform="translate(-100, -24)"><foreignObject width="200" height="48"><div xmlns="http://www.w3.org/1999/xhtml" class="labelBkg" style="display: table; white-space: break-spaces; line-height: 1.5; max-width: 200px; text-align: center; width: 200px;"><span class="edgeLabel"><p>interrupt (human-in-the-loop)</p></span></div></foreignObject></g></g><g class="edgeLabel" transform="translate(485.8828125, 671)"><g class="label" data-id="edge9" transform="translate(-41.8046875, -12)"><foreignObject width="83.609375" height="24"><div xmlns="http://www.w3.org/1999/xhtml" class="labelBkg" style="display: table-cell; white-space: nowrap; line-height: 1.5; max-width: 200px; text-align: center;"><span class="edgeLabel"><p>consent OK</p></span></div></foreignObject></g></g><g class="edgeLabel" transform="translate(723.984375, 935)"><g class="label" data-id="edge10" transform="translate(-49.8515625, -12)"><foreignObject width="99.703125" height="24"><div xmlns="http://www.w3.org/1999/xhtml" class="labelBkg" style="display: table-cell; white-space: nowrap; line-height: 1.5; max-width: 200px; text-align: center;"><span class="edgeLabel"><p>TTL / відмова</p></span></div></foreignObject></g></g><g class="edgeLabel" transform="translate(485.8828125, 797)"><g class="label" data-id="edge11" transform="translate(-78.7421875, -12)"><foreignObject width="157.484375" height="24"><div xmlns="http://www.w3.org/1999/xhtml" class="labelBkg" style="display: table-cell; white-space: nowrap; line-height: 1.5; max-width: 200px; text-align: center;"><span class="edgeLabel"><p>state_hash збігається</p></span></div></foreignObject></g></g><g class="edgeLabel" transform="translate(838.98828125, 614)"><g class="label" data-id="edge12" transform="translate(-89.2421875, -12)"><foreignObject width="178.484375" height="24"><div xmlns="http://www.w3.org/1999/xhtml" class="labelBkg" style="display: table-cell; white-space: nowrap; line-height: 1.5; max-width: 200px; text-align: center;"><span class="edgeLabel"><p>state змінився → re-plan</p></span></div></foreignObject></g></g><g class="edgeLabel" transform="translate(348.703125, 1004)"><g class="label" data-id="edge13" transform="translate(-28.8984375, -12)"><foreignObject width="57.796875" height="24"><div xmlns="http://www.w3.org/1999/xhtml" class="labelBkg" style="display: table-cell; white-space: nowrap; line-height: 1.5; max-width: 200px; text-align: center;"><span class="edgeLabel"><p>success</p></span></div></foreignObject></g></g><g class="edgeLabel" transform="translate(554.1328125, 935)"><g class="label" data-id="edge14" transform="translate(-100, -24)"><foreignObject width="200" height="48"><div xmlns="http://www.w3.org/1999/xhtml" class="labelBkg" style="display: table; white-space: break-spaces; line-height: 1.5; max-width: 200px; text-align: center; width: 200px;"><span class="edgeLabel"><p>timeout / відповідь втрачена</p></span></div></foreignObject></g></g><g class="edgeLabel" transform="translate(554.1328125, 1073)"><g class="label" data-id="edge15" transform="translate(-100, -24)"><foreignObject width="200" height="48"><div xmlns="http://www.w3.org/1999/xhtml" class="labelBkg" style="display: table; white-space: break-spaces; line-height: 1.5; max-width: 200px; text-align: center; width: 200px;"><span class="edgeLabel"><p>журнал in_flight → перевірка постумови</p></span></div></foreignObject></g></g><g class="edgeLabel" transform="translate(396.171875, 1211)"><g class="label" data-id="edge16" transform="translate(-59.421875, -12)"><foreignObject width="118.84375" height="24"><div xmlns="http://www.w3.org/1999/xhtml" class="labelBkg" style="display: table-cell; white-space: nowrap; line-height: 1.5; max-width: 200px; text-align: center;"><span class="edgeLabel"><p>diff = очікуваний</p></span></div></foreignObject></g></g><g class="edgeLabel" transform="translate(575.59375, 1211)"><g class="label" data-id="edge17" transform="translate(-100, -24)"><foreignObject width="200" height="48"><div xmlns="http://www.w3.org/1999/xhtml" class="labelBkg" style="display: table; white-space: break-spaces; line-height: 1.5; max-width: 200px; text-align: center; width: 200px;"><span class="edgeLabel"><p>diff ≠ очікуваний або читання недоступне</p></span></div></foreignObject></g></g><g class="edgeLabel"><g class="label" data-id="edge18" transform="translate(0, 0)"><foreignObject width="0" height="0"><div xmlns="http://www.w3.org/1999/xhtml" class="labelBkg" style="display: table-cell; white-space: nowrap; line-height: 1.5; max-width: 200px; text-align: center;"><span class="edgeLabel"></span></div></foreignObject></g></g><g class="edgeLabel"><g class="label" data-id="edge19" transform="translate(0, 0)"><foreignObject width="0" height="0"><div xmlns="http://www.w3.org/1999/xhtml" class="labelBkg" style="display: table-cell; white-space: nowrap; line-height: 1.5; max-width: 200px; text-align: center;"><span class="edgeLabel"></span></div></foreignObject></g></g><g class="edgeLabel"><g class="label" data-id="edge20" transform="translate(0, 0)"><foreignObject width="0" height="0"><div xmlns="http://www.w3.org/1999/xhtml" class="labelBkg" style="display: table-cell; white-space: nowrap; line-height: 1.5; max-width: 200px; text-align: center;"><span class="edgeLabel"></span></div></foreignObject></g></g><g class="edgeLabel"><g class="label" data-id="edge21" transform="translate(0, 0)"><foreignObject width="0" height="0"><div xmlns="http://www.w3.org/1999/xhtml" class="labelBkg" style="display: table-cell; white-space: nowrap; line-height: 1.5; max-width: 200px; text-align: center;"><span class="edgeLabel"></span></div></foreignObject></g></g><g class="edgeLabel"><g class="label" data-id="edge22" transform="translate(0, 0)"><foreignObject width="0" height="0"><div xmlns="http://www.w3.org/1999/xhtml" class="labelBkg" style="display: table-cell; white-space: nowrap; line-height: 1.5; max-width: 200px; text-align: center;"><span class="edgeLabel"></span></div></foreignObject></g></g><g class="edgeLabel"><g class="label" data-id="edge23" transform="translate(0, 0)"><foreignObject width="0" height="0"><div xmlns="http://www.w3.org/1999/xhtml" class="labelBkg" style="display: table-cell; white-space: nowrap; line-height: 1.5; max-width: 200px; text-align: center;"><span class="edgeLabel"></span></div></foreignObject></g></g></g><g class="nodes"><g class="node default" id="my-svg-state-root_start-0" data-look="classic" transform="translate(241.9140625, 15)"><circle class="state-start" r="7" width="14" height="14"/></g><g class="node  statediagram-state" id="my-svg-state-load_cart-1" data-look="classic" transform="translate(241.9140625, 92)"><rect class="basic label-container" style="" rx="5" ry="5" x="-40.9140625" y="-20" width="81.828125" height="40"/><g class="label" style="" transform="translate(-32.9140625, -12)"><rect/><foreignObject width="65.828125" height="24"><div xmlns="http://www.w3.org/1999/xhtml" style="display: table-cell; white-space: nowrap; line-height: 1.5; max-width: 200px; text-align: center;"><span class="nodeLabel markdown-node-label"><p>load_cart</p></span></div></foreignObject></g></g><g class="node  statediagram-state" id="my-svg-state-normalize-2" data-look="classic" transform="translate(241.9140625, 182)"><rect class="basic label-container" style="" rx="5" ry="5" x="-42.6796875" y="-20" width="85.359375" height="40"/><g class="label" style="" transform="translate(-34.6796875, -12)"><rect/><foreignObject width="69.359375" height="24"><div xmlns="http://www.w3.org/1999/xhtml" style="display: table-cell; white-space: nowrap; line-height: 1.5; max-width: 200px; text-align: center;"><span class="nodeLabel markdown-node-label"><p>normalize</p></span></div></foreignObject></g></g><g class="node  statediagram-state" id="my-svg-state-diagnose-5" data-look="classic" transform="translate(241.9140625, 272)"><rect class="basic label-container" style="" rx="5" ry="5" x="-40.4765625" y="-20" width="80.953125" height="40"/><g class="label" style="" transform="translate(-32.4765625, -12)"><rect/><foreignObject width="64.953125" height="24"><div xmlns="http://www.w3.org/1999/xhtml" style="display: table-cell; white-space: nowrap; line-height: 1.5; max-width: 200px; text-align: center;"><span class="nodeLabel markdown-node-label"><p>diagnose</p></span></div></foreignObject></g></g><g class="node  statediagram-state" id="my-svg-state-no_blocker-19" data-look="classic" transform="translate(68.125, 1280)"><rect class="basic label-container" style="" rx="5" ry="5" x="-47.140625" y="-20" width="94.28125" height="40"/><g class="label" style="" transform="translate(-39.140625, -12)"><rect/><foreignObject width="78.28125" height="24"><div xmlns="http://www.w3.org/1999/xhtml" style="display: table-cell; white-space: nowrap; line-height: 1.5; max-width: 200px; text-align: center;"><span class="nodeLabel markdown-node-label"><p>no_blocker</p></span></div></foreignObject></g></g><g class="node  statediagram-state" id="my-svg-state-unknown_code-20" data-look="classic" transform="translate(241.9140625, 1280)"><rect class="basic label-container" style="" rx="5" ry="5" x="-61.8203125" y="-20" width="123.640625" height="40"/><g class="label" style="" transform="translate(-53.8203125, -12)"><rect/><foreignObject width="107.640625" height="24"><div xmlns="http://www.w3.org/1999/xhtml" style="display: table-cell; white-space: nowrap; line-height: 1.5; max-width: 200px; text-align: center;"><span class="nodeLabel markdown-node-label"><p>unknown_code</p></span></div></foreignObject></g></g><g class="node  statediagram-state" id="my-svg-state-collect_options-7" data-look="classic" transform="translate(717.125, 362)"><rect class="basic label-container" style="" rx="5" ry="5" x="-60.921875" y="-20" width="121.84375" height="40"/><g class="label" style="" transform="translate(-52.921875, -12)"><rect/><foreignObject width="105.84375" height="24"><div xmlns="http://www.w3.org/1999/xhtml" style="display: table-cell; white-space: nowrap; line-height: 1.5; max-width: 200px; text-align: center;"><span class="nodeLabel markdown-node-label"><p>collect_options</p></span></div></foreignObject></g></g><g class="node  statediagram-state" id="my-svg-state-propose-12" data-look="classic" transform="translate(662.50390625, 476)"><rect class="basic label-container" style="" rx="5" ry="5" x="-36.9140625" y="-20" width="73.828125" height="40"/><g class="label" style="" transform="translate(-28.9140625, -12)"><rect/><foreignObject width="57.828125" height="24"><div xmlns="http://www.w3.org/1999/xhtml" style="display: table-cell; white-space: nowrap; line-height: 1.5; max-width: 200px; text-align: center;"><span class="nodeLabel markdown-node-label"><p>propose</p></span></div></foreignObject></g></g><g class="node  statediagram-state" id="my-svg-state-budget_exceeded-23" data-look="classic" transform="translate(948.23046875, 1280)"><rect class="basic label-container" style="" rx="5" ry="5" x="-71.6171875" y="-20" width="143.234375" height="40"/><g class="label" style="" transform="translate(-63.6171875, -12)"><rect/><foreignObject width="127.234375" height="24"><div xmlns="http://www.w3.org/1999/xhtml" style="display: table-cell; white-space: nowrap; line-height: 1.5; max-width: 200px; text-align: center;"><span class="nodeLabel markdown-node-label"><p>budget_exceeded</p></span></div></foreignObject></g></g><g class="node  statediagram-state" id="my-svg-state-await_consent-10" data-look="classic" transform="translate(570.80859375, 614)"><rect class="basic label-container" style="" rx="5" ry="5" x="-59.1484375" y="-20" width="118.296875" height="40"/><g class="label" style="" transform="translate(-51.1484375, -12)"><rect/><foreignObject width="102.296875" height="24"><div xmlns="http://www.w3.org/1999/xhtml" style="display: table-cell; white-space: nowrap; line-height: 1.5; max-width: 200px; text-align: center;"><span class="nodeLabel markdown-node-label"><p>await_consent</p></span></div></foreignObject></g></g><g class="node  statediagram-state" id="my-svg-state-recheck-12" data-look="classic" transform="translate(485.8828125, 728)"><rect class="basic label-container" style="" rx="5" ry="5" x="-36.015625" y="-20" width="72.03125" height="40"/><g class="label" style="" transform="translate(-28.015625, -12)"><rect/><foreignObject width="56.03125" height="24"><div xmlns="http://www.w3.org/1999/xhtml" style="display: table-cell; white-space: nowrap; line-height: 1.5; max-width: 200px; text-align: center;"><span class="nodeLabel markdown-node-label"><p>recheck</p></span></div></foreignObject></g></g><g class="node  statediagram-state" id="my-svg-state-expired-21" data-look="classic" transform="translate(723.984375, 1280)"><rect class="basic label-container" style="" rx="5" ry="5" x="-34.2421875" y="-20" width="68.484375" height="40"/><g class="label" style="" transform="translate(-26.2421875, -12)"><rect/><foreignObject width="52.484375" height="24"><div xmlns="http://www.w3.org/1999/xhtml" style="display: table-cell; white-space: nowrap; line-height: 1.5; max-width: 200px; text-align: center;"><span class="nodeLabel markdown-node-label"><p>expired</p></span></div></foreignObject></g></g><g class="node  statediagram-state" id="my-svg-state-write-14" data-look="classic" transform="translate(485.8828125, 866)"><rect class="basic label-container" style="" rx="5" ry="5" x="-24.890625" y="-20" width="49.78125" height="40"/><g class="label" style="" transform="translate(-16.890625, -12)"><rect/><foreignObject width="33.78125" height="24"><div xmlns="http://www.w3.org/1999/xhtml" style="display: table-cell; white-space: nowrap; line-height: 1.5; max-width: 200px; text-align: center;"><span class="nodeLabel markdown-node-label"><p>write</p></span></div></foreignObject></g></g><g class="node  statediagram-state" id="my-svg-state-read_back-17" data-look="classic" transform="translate(485.8828125, 1142)"><rect class="basic label-container" style="" rx="5" ry="5" x="-45.359375" y="-20" width="90.71875" height="40"/><g class="label" style="" transform="translate(-37.359375, -12)"><rect/><foreignObject width="74.71875" height="24"><div xmlns="http://www.w3.org/1999/xhtml" style="display: table-cell; white-space: nowrap; line-height: 1.5; max-width: 200px; text-align: center;"><span class="nodeLabel markdown-node-label"><p>read_back</p></span></div></foreignObject></g></g><g class="node  statediagram-state" id="my-svg-state-op_unknown-15" data-look="classic" transform="translate(554.1328125, 1004)"><rect class="basic label-container" style="" rx="5" ry="5" x="-53.375" y="-20" width="106.75" height="40"/><g class="label" style="" transform="translate(-45.375, -12)"><rect/><foreignObject width="90.75" height="24"><div xmlns="http://www.w3.org/1999/xhtml" style="display: table-cell; white-space: nowrap; line-height: 1.5; max-width: 200px; text-align: center;"><span class="nodeLabel markdown-node-label"><p>op_unknown</p></span></div></foreignObject></g></g><g class="node  statediagram-state" id="my-svg-state-receipt-18" data-look="classic" transform="translate(396.171875, 1280)"><rect class="basic label-container" style="" rx="5" ry="5" x="-32.015625" y="-20" width="64.03125" height="40"/><g class="label" style="" transform="translate(-24.015625, -12)"><rect/><foreignObject width="48.03125" height="24"><div xmlns="http://www.w3.org/1999/xhtml" style="display: table-cell; white-space: nowrap; line-height: 1.5; max-width: 200px; text-align: center;"><span class="nodeLabel markdown-node-label"><p>receipt</p></span></div></foreignObject></g></g><g class="node  statediagram-state" id="my-svg-state-unverified-22" data-look="classic" transform="translate(575.59375, 1280)"><rect class="basic label-container" style="" rx="5" ry="5" x="-42.6875" y="-20" width="85.375" height="40"/><g class="label" style="" transform="translate(-34.6875, -12)"><rect/><foreignObject width="69.375" height="24"><div xmlns="http://www.w3.org/1999/xhtml" style="display: table-cell; white-space: nowrap; line-height: 1.5; max-width: 200px; text-align: center;"><span class="nodeLabel markdown-node-label"><p>unverified</p></span></div></foreignObject></g></g><g class="node default" id="my-svg-state-root_end-23" data-look="classic" transform="translate(485.8828125, 1357)"><g class="outer-path"><path d="M7 0 C7 0.40517908122283747, 6.964012880168563 0.816513743121899, 6.893654271085456 1.2155372436685123 C6.823295662002349 1.6145607442151257, 6.716427752933756 2.013397210557766, 6.5778483455013586 2.394141003279681 C6.439268938068961 2.7748847960015954, 6.26476736710249 3.149104622578984, 6.062177826491071 3.4999999999999996 C5.859588285879653 3.8508953774210153, 5.622755194947063 4.189128084166967, 5.362311101832846 4.499513267805774 C5.10186700871863 4.809898451444582, 4.809898451444583 5.10186700871863, 4.499513267805775 5.362311101832846 C4.189128084166968 5.622755194947063, 3.8508953774210166 5.859588285879652, 3.500000000000001 6.06217782649107 C3.149104622578985 6.264767367102489, 2.7748847960015963 6.439268938068961, 2.3941410032796817 6.5778483455013586 C2.013397210557767 6.716427752933756, 1.6145607442151264 6.823295662002349, 1.2155372436685128 6.893654271085456 C0.8165137431218992 6.964012880168563, 0.4051790812228379 7, 4.286263797015736e-16 7 C-0.405179081222837 7, -0.8165137431218985 6.964012880168563, -1.2155372436685121 6.893654271085456 C-1.6145607442151257 6.823295662002349, -2.0133972105577667 6.716427752933756, -2.394141003279681 6.5778483455013586 C-2.774884796001595 6.439268938068961, -3.149104622578983 6.26476736710249, -3.4999999999999982 6.062177826491071 C-3.8508953774210135 5.859588285879653, -4.189128084166966 5.6227551949470636, -4.499513267805773 5.362311101832848 C-4.809898451444581 5.101867008718632, -5.101867008718628 4.809898451444586, -5.3623111018328435 4.499513267805779 C-5.622755194947059 4.189128084166971, -5.859588285879649 3.8508953774210206, -6.062177826491068 3.5000000000000053 C-6.264767367102486 3.14910462257899, -6.439268938068958 2.774884796001602, -6.577848345501356 2.394141003279688 C-6.716427752933754 2.0133972105577738, -6.823295662002347 1.614560744215134, -6.893654271085454 1.215537243668521 C-6.9640128801685615 0.816513743121908, -6.999999999999999 0.4051790812228472, -7 1.0183126166254463e-14 C-7.000000000000001 -0.40517908122282686, -6.964012880168565 -0.8165137431218878, -6.893654271085459 -1.215537243668501 C-6.823295662002352 -1.6145607442151142, -6.716427752933759 -2.0133972105577542, -6.577848345501363 -2.394141003279669 C-6.439268938068967 -2.7748847960015834, -6.264767367102496 -3.149104622578972, -6.062177826491078 -3.4999999999999876 C-5.859588285879661 -3.8508953774210033, -5.6227551949470715 -4.1891280841669545, -5.362311101832856 -4.499513267805763 C-5.10186700871864 -4.809898451444571, -4.809898451444594 -5.10186700871862, -4.499513267805787 -5.362311101832836 C-4.189128084166979 -5.622755194947053, -3.850895377421028 -5.859588285879643, -3.5000000000000133 -6.062177826491062 C-3.1491046225789985 -6.264767367102482, -2.774884796001611 -6.439268938068954, -2.3941410032796973 -6.577848345501353 C-2.0133972105577835 -6.716427752933752, -1.6145607442151435 -6.823295662002345, -1.2155372436685306 -6.893654271085453 C-0.8165137431219176 -6.9640128801685615, -0.40517908122285695 -6.999999999999999, -1.9937625952807352e-14 -7 C0.4051790812228171 -7.000000000000001, 0.8165137431218781 -6.964012880168565, 1.2155372436684913 -6.89365427108546 C1.6145607442151044 -6.823295662002354, 2.013397210557745 -6.716427752933763, 2.3941410032796595 -6.5778483455013665 C2.774884796001574 -6.43926893806897, 3.149104622578963 -6.2647673671025, 3.499999999999979 -6.062177826491083 C3.8508953774209953 -5.859588285879665, 4.189128084166947 -5.622755194947077, 4.499513267805756 -5.362311101832862 C4.809898451444564 -5.1018670087186475, 5.101867008718613 -4.809898451444602, 5.362311101832829 -4.499513267805796 C5.622755194947046 -4.189128084166989, 5.859588285879637 -3.8508953774210393, 6.062177826491056 -3.500000000000025 C6.2647673671024755 -3.1491046225790105, 6.439268938068949 -2.774884796001623, 6.577848345501348 -2.3941410032797092 C6.716427752933747 -2.0133972105577955, 6.823295662002342 -1.6145607442151562, 6.893654271085451 -1.2155372436685434 C6.96401288016856 -0.8165137431219307, 6.982275711847575 -0.2025895406114567, 7 -3.2800750208310675e-14 C7.017724288152425 0.2025895406113911, 7.017724288152424 -0.2025895406114242, 7 0" stroke="none" stroke-width="0" fill="#ECECFF" style=""/><path d="M7 0 C7 0.40517908122283747, 6.964012880168563 0.816513743121899, 6.893654271085456 1.2155372436685123 C6.823295662002349 1.6145607442151257, 6.716427752933756 2.013397210557766, 6.5778483455013586 2.394141003279681 C6.439268938068961 2.7748847960015954, 6.26476736710249 3.149104622578984, 6.062177826491071 3.4999999999999996 C5.859588285879653 3.8508953774210153, 5.622755194947063 4.189128084166967, 5.362311101832846 4.499513267805774 C5.10186700871863 4.809898451444582, 4.809898451444583 5.10186700871863, 4.499513267805775 5.362311101832846 C4.189128084166968 5.622755194947063, 3.8508953774210166 5.859588285879652, 3.500000000000001 6.06217782649107 C3.149104622578985 6.264767367102489, 2.7748847960015963 6.439268938068961, 2.3941410032796817 6.5778483455013586 C2.013397210557767 6.716427752933756, 1.6145607442151264 6.823295662002349, 1.2155372436685128 6.893654271085456 C0.8165137431218992 6.964012880168563, 0.4051790812228379 7, 4.286263797015736e-16 7 C-0.405179081222837 7, -0.8165137431218985 6.964012880168563, -1.2155372436685121 6.893654271085456 C-1.6145607442151257 6.823295662002349, -2.0133972105577667 6.716427752933756, -2.394141003279681 6.5778483455013586 C-2.774884796001595 6.439268938068961, -3.149104622578983 6.26476736710249, -3.4999999999999982 6.062177826491071 C-3.8508953774210135 5.859588285879653, -4.189128084166966 5.6227551949470636, -4.499513267805773 5.362311101832848 C-4.809898451444581 5.101867008718632, -5.101867008718628 4.809898451444586, -5.3623111018328435 4.499513267805779 C-5.622755194947059 4.189128084166971, -5.859588285879649 3.8508953774210206, -6.062177826491068 3.5000000000000053 C-6.264767367102486 3.14910462257899, -6.439268938068958 2.774884796001602, -6.577848345501356 2.394141003279688 C-6.716427752933754 2.0133972105577738, -6.823295662002347 1.614560744215134, -6.893654271085454 1.215537243668521 C-6.9640128801685615 0.816513743121908, -6.999999999999999 0.4051790812228472, -7 1.0183126166254463e-14 C-7.000000000000001 -0.40517908122282686, -6.964012880168565 -0.8165137431218878, -6.893654271085459 -1.215537243668501 C-6.823295662002352 -1.6145607442151142, -6.716427752933759 -2.0133972105577542, -6.577848345501363 -2.394141003279669 C-6.439268938068967 -2.7748847960015834, -6.264767367102496 -3.149104622578972, -6.062177826491078 -3.4999999999999876 C-5.859588285879661 -3.8508953774210033, -5.6227551949470715 -4.1891280841669545, -5.362311101832856 -4.499513267805763 C-5.10186700871864 -4.809898451444571, -4.809898451444594 -5.10186700871862, -4.499513267805787 -5.362311101832836 C-4.189128084166979 -5.622755194947053, -3.850895377421028 -5.859588285879643, -3.5000000000000133 -6.062177826491062 C-3.1491046225789985 -6.264767367102482, -2.774884796001611 -6.439268938068954, -2.3941410032796973 -6.577848345501353 C-2.0133972105577835 -6.716427752933752, -1.6145607442151435 -6.823295662002345, -1.2155372436685306 -6.893654271085453 C-0.8165137431219176 -6.9640128801685615, -0.40517908122285695 -6.999999999999999, -1.9937625952807352e-14 -7 C0.4051790812228171 -7.000000000000001, 0.8165137431218781 -6.964012880168565, 1.2155372436684913 -6.89365427108546 C1.6145607442151044 -6.823295662002354, 2.013397210557745 -6.716427752933763, 2.3941410032796595 -6.5778483455013665 C2.774884796001574 -6.43926893806897, 3.149104622578963 -6.2647673671025, 3.499999999999979 -6.062177826491083 C3.8508953774209953 -5.859588285879665, 4.189128084166947 -5.622755194947077, 4.499513267805756 -5.362311101832862 C4.809898451444564 -5.1018670087186475, 5.101867008718613 -4.809898451444602, 5.362311101832829 -4.499513267805796 C5.622755194947046 -4.189128084166989, 5.859588285879637 -3.8508953774210393, 6.062177826491056 -3.500000000000025 C6.2647673671024755 -3.1491046225790105, 6.439268938068949 -2.774884796001623, 6.577848345501348 -2.3941410032797092 C6.716427752933747 -2.0133972105577955, 6.823295662002342 -1.6145607442151562, 6.893654271085451 -1.2155372436685434 C6.96401288016856 -0.8165137431219307, 6.982275711847575 -0.2025895406114567, 7 -3.2800750208310675e-14 C7.017724288152425 0.2025895406113911, 7.017724288152424 -0.2025895406114242, 7 0" stroke="#333333" stroke-width="2" fill="none" stroke-dasharray="0 0" style=""/><g><path d="M2.5 0 C2.5 0.14470681472244193, 2.487147457203058 0.29161205111496386, 2.46201938253052 0.4341204441673258 C2.436891307857982 0.5766288372196877, 2.3987241974763416 0.7190704323420595, 2.3492315519647713 0.8550503583141718 C2.299738906453201 0.991030284286284, 2.2374169168223177 1.124680222349637, 2.165063509461097 1.2499999999999998 C2.092710102099876 1.3753197776503625, 2.0081268553382365 1.496117172916774, 1.915111107797445 1.6069690242163481 C1.8220953602566536 1.7178208755159223, 1.7178208755159226 1.8220953602566536, 1.6069690242163484 1.915111107797445 C1.4961171729167742 2.0081268553382365, 1.375319777650363 2.0927101020998755, 1.2500000000000002 2.1650635094610964 C1.1246802223496375 2.2374169168223172, 0.9910302842862845 2.2997389064532, 0.8550503583141721 2.349231551964771 C0.7190704323420597 2.3987241974763416, 0.576628837219688 2.436891307857982, 0.43412044416732604 2.46201938253052 C0.291612051114964 2.487147457203058, 0.14470681472244212 2.5, 1.5308084989341916e-16 2.5 C-0.1447068147224418 2.5, -0.2916120511149638 2.487147457203058, -0.43412044416732576 2.46201938253052 C-0.5766288372196877 2.436891307857982, -0.7190704323420595 2.3987241974763416, -0.8550503583141718 2.3492315519647713 C-0.991030284286284 2.299738906453201, -1.124680222349637 2.2374169168223177, -1.2499999999999996 2.165063509461097 C-1.375319777650362 2.092710102099876, -1.4961171729167733 2.008126855338237, -1.6069690242163475 1.9151111077974459 C-1.7178208755159217 1.8220953602566548, -1.822095360256653 1.7178208755159234, -1.9151111077974443 1.6069690242163495 C-2.0081268553382357 1.4961171729167755, -2.0927101020998746 1.3753197776503645, -2.1650635094610955 1.250000000000002 C-2.2374169168223164 1.1246802223496395, -2.2997389064531992 0.9910302842862865, -2.34923155196477 0.8550503583141743 C-2.3987241974763407 0.7190704323420621, -2.436891307857981 0.5766288372196907, -2.4620193825305194 0.434120444167329 C-2.487147457203058 0.29161205111496724, -2.5 0.14470681472244545, -2.5 3.636830773662308e-15 C-2.5 -0.14470681472243818, -2.4871474572030587 -0.2916120511149599, -2.4620193825305208 -0.4341204441673218 C-2.436891307857983 -0.5766288372196837, -2.398724197476343 -0.7190704323420553, -2.3492315519647726 -0.8550503583141675 C-2.2997389064532023 -0.9910302842862798, -2.23741691682232 -1.1246802223496328, -2.165063509461099 -1.2499999999999956 C-2.092710102099878 -1.3753197776503583, -2.00812685533824 -1.4961171729167695, -1.9151111077974488 -1.606969024216344 C-1.8220953602566576 -1.7178208755159183, -1.7178208755159263 -1.82209536025665, -1.6069690242163523 -1.9151111077974416 C-1.4961171729167784 -2.0081268553382334, -1.3753197776503672 -2.0927101020998724, -1.2500000000000047 -2.1650635094610937 C-1.1246802223496422 -2.237416916822315, -0.9910302842862897 -2.299738906453198, -0.8550503583141776 -2.3492315519647686 C-0.7190704323420656 -2.3987241974763394, -0.5766288372196942 -2.4368913078579806, -0.43412044416733236 -2.462019382530519 C-0.29161205111497057 -2.4871474572030574, -0.1447068147224489 -2.4999999999999996, -7.120580697431198e-15 -2.5 C0.14470681472243463 -2.5000000000000004, 0.29161205111495647 -2.487147457203059, 0.4341204441673183 -2.4620193825305217 C0.5766288372196802 -2.436891307857984, 0.7190704323420518 -2.3987241974763442, 0.8550503583141642 -2.349231551964774 C0.9910302842862766 -2.2997389064532037, 1.1246802223496295 -2.2374169168223212, 1.2499999999999925 -2.165063509461101 C1.3753197776503554 -2.0927101020998804, 1.4961171729167668 -2.008126855338242, 1.6069690242163412 -1.915111107797451 C1.7178208755159157 -1.82209536025666, 1.8220953602566472 -1.7178208755159294, 1.915111107797439 -1.6069690242163557 C2.0081268553382308 -1.496117172916782, 2.09271010209987 -1.3753197776503712, 2.1650635094610915 -1.2500000000000089 C2.237416916822313 -1.1246802223496466, 2.299738906453196 -0.9910302842862939, 2.3492315519647673 -0.855050358314182 C2.3987241974763385 -0.71907043234207, 2.4368913078579792 -0.5766288372196986, 2.462019382530518 -0.4341204441673369 C2.487147457203057 -0.29161205111497523, 2.4936698970884197 -0.07235340736123454, 2.5 -1.1714553645825241e-14 C2.5063301029115803 0.07235340736121111, 2.50633010291158 -0.07235340736122292, 2.5 0" stroke="none" stroke-width="0" fill="#9370DB" style=""/><path d="M2.5 0 C2.5 0.14470681472244193, 2.487147457203058 0.29161205111496386, 2.46201938253052 0.4341204441673258 C2.436891307857982 0.5766288372196877, 2.3987241974763416 0.7190704323420595, 2.3492315519647713 0.8550503583141718 C2.299738906453201 0.991030284286284, 2.2374169168223177 1.124680222349637, 2.165063509461097 1.2499999999999998 C2.092710102099876 1.3753197776503625, 2.0081268553382365 1.496117172916774, 1.915111107797445 1.6069690242163481 C1.8220953602566536 1.7178208755159223, 1.7178208755159226 1.8220953602566536, 1.6069690242163484 1.915111107797445 C1.4961171729167742 2.0081268553382365, 1.375319777650363 2.0927101020998755, 1.2500000000000002 2.1650635094610964 C1.1246802223496375 2.2374169168223172, 0.9910302842862845 2.2997389064532, 0.8550503583141721 2.349231551964771 C0.7190704323420597 2.3987241974763416, 0.576628837219688 2.436891307857982, 0.43412044416732604 2.46201938253052 C0.291612051114964 2.487147457203058, 0.14470681472244212 2.5, 1.5308084989341916e-16 2.5 C-0.1447068147224418 2.5, -0.2916120511149638 2.487147457203058, -0.43412044416732576 2.46201938253052 C-0.5766288372196877 2.436891307857982, -0.7190704323420595 2.3987241974763416, -0.8550503583141718 2.3492315519647713 C-0.991030284286284 2.299738906453201, -1.124680222349637 2.2374169168223177, -1.2499999999999996 2.165063509461097 C-1.375319777650362 2.092710102099876, -1.4961171729167733 2.008126855338237, -1.6069690242163475 1.9151111077974459 C-1.7178208755159217 1.8220953602566548, -1.822095360256653 1.7178208755159234, -1.9151111077974443 1.6069690242163495 C-2.0081268553382357 1.4961171729167755, -2.0927101020998746 1.3753197776503645, -2.1650635094610955 1.250000000000002 C-2.2374169168223164 1.1246802223496395, -2.2997389064531992 0.9910302842862865, -2.34923155196477 0.8550503583141743 C-2.3987241974763407 0.7190704323420621, -2.436891307857981 0.5766288372196907, -2.4620193825305194 0.434120444167329 C-2.487147457203058 0.29161205111496724, -2.5 0.14470681472244545, -2.5 3.636830773662308e-15 C-2.5 -0.14470681472243818, -2.4871474572030587 -0.2916120511149599, -2.4620193825305208 -0.4341204441673218 C-2.436891307857983 -0.5766288372196837, -2.398724197476343 -0.7190704323420553, -2.3492315519647726 -0.8550503583141675 C-2.2997389064532023 -0.9910302842862798, -2.23741691682232 -1.1246802223496328, -2.165063509461099 -1.2499999999999956 C-2.092710102099878 -1.3753197776503583, -2.00812685533824 -1.4961171729167695, -1.9151111077974488 -1.606969024216344 C-1.8220953602566576 -1.7178208755159183, -1.7178208755159263 -1.82209536025665, -1.6069690242163523 -1.9151111077974416 C-1.4961171729167784 -2.0081268553382334, -1.3753197776503672 -2.0927101020998724, -1.2500000000000047 -2.1650635094610937 C-1.1246802223496422 -2.237416916822315, -0.9910302842862897 -2.299738906453198, -0.8550503583141776 -2.3492315519647686 C-0.7190704323420656 -2.3987241974763394, -0.5766288372196942 -2.4368913078579806, -0.43412044416733236 -2.462019382530519 C-0.29161205111497057 -2.4871474572030574, -0.1447068147224489 -2.4999999999999996, -7.120580697431198e-15 -2.5 C0.14470681472243463 -2.5000000000000004, 0.29161205111495647 -2.487147457203059, 0.4341204441673183 -2.4620193825305217 C0.5766288372196802 -2.436891307857984, 0.7190704323420518 -2.3987241974763442, 0.8550503583141642 -2.349231551964774 C0.9910302842862766 -2.2997389064532037, 1.1246802223496295 -2.2374169168223212, 1.2499999999999925 -2.165063509461101 C1.3753197776503554 -2.0927101020998804, 1.4961171729167668 -2.008126855338242, 1.6069690242163412 -1.915111107797451 C1.7178208755159157 -1.82209536025666, 1.8220953602566472 -1.7178208755159294, 1.915111107797439 -1.6069690242163557 C2.0081268553382308 -1.496117172916782, 2.09271010209987 -1.3753197776503712, 2.1650635094610915 -1.2500000000000089 C2.237416916822313 -1.1246802223496466, 2.299738906453196 -0.9910302842862939, 2.3492315519647673 -0.855050358314182 C2.3987241974763385 -0.71907043234207, 2.4368913078579792 -0.5766288372196986, 2.462019382530518 -0.4341204441673369 C2.487147457203057 -0.29161205111497523, 2.4936698970884197 -0.07235340736123454, 2.5 -1.1714553645825241e-14 C2.5063301029115803 0.07235340736121111, 2.50633010291158 -0.07235340736122292, 2.5 0" stroke="#9370DB" stroke-width="2" fill="none" stroke-dasharray="0 0" style=""/></g></g></g></g></g></g><defs><filter id="my-svg-drop-shadow" height="130%" width="130%"><feDropShadow dx="4" dy="4" stdDeviation="0" flood-opacity="0.06" flood-color="#000000"/></filter></defs><defs><filter id="my-svg-drop-shadow-small" height="150%" width="150%"><feDropShadow dx="2" dy="2" stdDeviation="0" flood-opacity="0.06" flood-color="#000000"/></filter></defs></svg>